# xmcd
#
# Track frame offsets:
#	200
#	10197
#	23227
#	39522
#	56342
#	81050
#	103240
#	116810
#	129430
#	145335
#
# Disc length: 2046 seconds
#
# Revision: 0
# Processed by: cddbd v1.5.2PL0 Copyright (c) Steve Scherf et al.
# Submitted via: EasyCDDAExtractor 10.0.6.1
#
DISCID=8007fc0a
DTITLE=Various Artist - Cooke Brothers Vol. 4
DYEAR=1900
DGENRE=Gospel
TTITLE0=The Singing Cookes - Lazarus
TTITLE1=Arlie Petree - Roll That Burden On Me
TTITLE2=Pleasant Ridge Trio - He Wrote My Name
TTITLE3=The Trinity Heirs - Strong Wind In My Sails
TTITLE4=Gospel Foundation - I'm Coming Home
TTITLE5=The Mcneils - I Want To See Jesus
TTITLE6=The Turners - Heir To A Mansion
TTITLE7=Harveys - Hold On To His Promise
TTITLE8=Harry Johnson - That Old Book
TTITLE9=Donnie Sizemore - You Never Know
EXTD=
EXTT0=
EXTT1=
EXTT2=
EXTT3=
EXTT4=
EXTT5=
EXTT6=
EXTT7=
EXTT8=
EXTT9=
PLAYORDER=
